<?xml version="1.0" encoding="utf-8"?>
<!-- Generator: Adobe Illustrator 15.0.2, SVG Export Plug-In . SVG Version: 6.00 Build 0)  -->
<!DOCTYPE svg PUBLIC "-//W3C//DTD SVG 1.1//EN" "http://www.w3.org/Graphics/SVG/1.1/DTD/svg11.dtd">
<svg version="1.1" id="Layer_1" xmlns="http://www.w3.org/2000/svg" xmlns:xlink="http://www.w3.org/1999/xlink" x="0px" y="0px"
	 width="512px" height="380.464px" viewBox="0 0 512 380.464" enable-background="new 0 0 512 380.464" xml:space="preserve">
<g>
	<path d="M261.797,377.312l243.187-173.987c4.401-3.144,7.004-8.229,7.017-13.643c0-0.039,0-0.039,0-0.039
		c-0.013-5.441-2.641-10.519-7.075-13.675L261.738,3.104c-5.119-3.646-11.855-4.115-17.438-1.223
		c-5.575,2.843-9.087,8.627-9.087,14.934v81.35L16.795,98.159C7.512,98.159,0,105.671,0,114.961l0.006,150.523
		C0,274.758,7.512,282.277,16.808,282.283h218.399v81.387c0,6.273,3.538,12.039,9.12,14.934
		C249.916,381.486,256.668,380.99,261.797,377.312z"/>
</g>
</svg>
