<svg version="1.1" xmlns="http://www.w3.org/2000/svg" xmlns:xlink="http://www.w3.org/1999/xlink" x="0px" y="0px" viewBox="0 0 1000 1000" enable-background="new 0 0 1000 1000" xml:space="preserve">
<metadata> Svg Vector Icons : http://www.onlinewebfonts.com/icon </metadata>
  <g><g><g><g><path d="M318.8,413.9c-31.9,0-57.8,25.9-57.8,57.7c0,31.8,25.9,57.7,57.8,57.7c31.8,0,57.6-25.8,57.6-57.7C376.5,439.7,350.6,413.9,318.8,413.9z" style="fill:#FFFFFF"></path></g><g><path d="M687.8,245.7h-3.9l-3.6,1.7c-63.1,31.2-114.4,45.7-165.3,46.8c-1.7-21.5-1.9-62.8,17.2-89.6c9.5-13.3,22.6-21.1,39.9-23.9c7.9-1.3,15.9-2.5,23.9-3.7c89.1-13.7,190-29.4,216.2-114.8l-32.4-9.9c-19.9,65.2-105.9,78.4-189,91.3c-8.1,1.2-16.2,2.5-24.1,3.8c-26.4,4.3-47.4,17-62.1,37.8c-24.1,33.8-25.4,81-23.7,108c-45.3-4.2-93.9-18.8-156.9-47l-3.3-1.5h-3.6C139,244.6,10,559.4,10,771.6c0,50.7,7.4,91.6,22.1,121.5c17.5,35.7,45.1,54.6,79.8,54.6c79.1,0,127.6-46.3,174.4-91.1C340.2,805.3,395.9,752,505,752c89.9,0,159,54.7,225.8,107.6c55.6,44.1,108.2,85.7,166.2,85.7c32,0,57.2-16,73.1-46.4c13.2-25.2,19.9-60.2,19.9-104C990,609.4,853.2,245.7,687.8,245.7z M318.8,563c-50.5,0-91.6-41.1-91.6-91.5c0-50.5,41.1-91.5,91.6-91.5c50.4,0,91.5,41,91.5,91.5C410.3,522,369.2,563,318.8,563z M681.6,339c19.6-12.4,47.2-6.2,59.6,13.2c6.2,9.7,8.2,21.2,5.7,32.5c-2.5,11.3-9.3,20.9-19,27.1c-6.9,4.4-14.9,6.7-23.1,6.7c-14.8,0-28.4-7.4-36.4-19.9C655.7,378.5,661.6,351.8,681.6,339z M594.8,475.7c-12.8-20.1-6.8-46.8,13.1-59.5c19.5-12.5,47.2-6.2,59.5,13.2c6.2,9.7,8.3,21.3,5.7,32.5c-2.5,11.2-9.2,20.8-18.9,27c-7,4.4-14.9,6.7-23.1,6.7C616.4,495.7,602.8,488.2,594.8,475.7z M711,578.7c-6.9,4.4-14.9,6.8-23.1,6.8c-14.8,0-28.5-7.5-36.4-20c-6.2-9.7-8.2-21.2-5.7-32.5c2.5-11.2,9.2-20.8,18.9-27c19.5-12.4,47.2-6.2,59.6,13.2C736.9,539.2,731,565.9,711,578.7z M803.6,474.4c-2.5,11.2-9.2,20.8-18.9,27c-6.9,4.4-14.9,6.8-23.1,6.8c-14.8,0-28.4-7.5-36.4-20c-6.2-9.7-8.2-21.2-5.7-32.5c2.5-11.2,9.2-20.8,19-27.1c19.5-12.4,47.1-6.2,59.5,13.2C804.1,451.7,806.1,463.2,803.6,474.4z" style="fill:#FFFFFF"></path></g></g></g><g></g><g></g><g></g><g></g><g></g><g></g><g></g><g></g><g></g><g></g><g></g><g></g><g></g><g></g><g></g></g></svg>
